<?xml version="1.0" encoding="utf-8"?>
<svg version="1.1" xmlns:xlink="http://www.w3.org/1999/xlink" width="21px" height="20px" xmlns="http://www.w3.org/2000/svg">
  <g transform="matrix(1 0 0 1 -278 -129 )">
    <path d="M 9.79372197309417 15  L 10.4529147982063 15  L 11.8183856502242 13.3522727272727  L 10.0291479820628 11.1931818181818  L 8.66367713004484 12.8409090909091  L 8.66367713004484 13.6363636363636  L 9.79372197309417 13.6363636363636  L 9.79372197309417 15  Z M 15.6205156950673 5.24147727272727  C 15.7539237668161 5.08049242424242  15.7578475336323 4.92424242424242  15.6322869955157 4.77272727272727  C 15.5067264573991 4.62121212121212  15.3772421524664 4.62594696969697  15.2438340807175 4.78693181818182  L 11.1238789237668 9.75852272727273  C 10.9904708520179 9.91950757575758  10.9865470852018 10.0757575757576  11.1121076233184 10.2272727272727  C 11.237668161435 10.3787878787879  11.3671524663677 10.374053030303  11.5005605381166 10.2130681818182  L 15.6205156950673 5.24147727272727  Z M 16.3385650224215 12.7982954545455  C 16.4955156950673 12.874053030303  16.5739910313901 13.0113636363636  16.5739910313901 13.2102272727273  L 16.5739910313901 15.9090909090909  C 16.5739910313901 17.0359848484848  16.242432735426 17.9995265151515  15.5793161434978 18.7997159090909  C 14.9161995515695 19.5999053030303  14.1177130044843 20  13.1838565022422 20  L 3.39013452914798 20  C 2.45627802690583 20  1.65779147982063 19.5999053030303  0.994674887892377 18.7997159090909  C 0.331558295964126 17.9995265151515  0 17.0359848484848  0 15.9090909090909  L 0 4.09090909090909  C 0 2.96401515151515  0.331558295964126 2.00047348484848  0.994674887892377 1.20028409090909  C 1.65779147982063 0.400094696969695  2.45627802690583 0  3.39013452914798 0  L 13.1838565022422 0  C 13.6782511210762 0  14.137331838565 0.118371212121211  14.5610986547085 0.355113636363635  C 14.6788116591928 0.421401515151514  14.7494394618834 0.53030303030303  14.7729820627803 0.681818181818181  C 14.7965246636771 0.84280303030303  14.7612107623318 0.980113636363635  14.6670403587444 1.09375  L 14.0902466367713 1.78977272727273  C 13.9803811659193 1.92234848484848  13.8548206278027 1.96022727272727  13.7135650224215 1.90340909090909  C 13.5330717488789 1.84659090909091  13.3565022421525 1.81818181818182  13.1838565022422 1.81818181818182  L 3.39013452914798 1.81818181818182  C 2.87219730941704 1.81818181818182  2.42881165919283 2.0407196969697  2.05997757847534 2.48579545454545  C 1.69114349775785 2.93087121212121  1.5067264573991 3.46590909090909  1.5067264573991 4.09090909090909  L 1.5067264573991 15.9090909090909  C 1.5067264573991 16.5340909090909  1.69114349775785 17.0691287878788  2.05997757847534 17.5142045454545  C 2.42881165919283 17.9592803030303  2.87219730941704 18.1818181818182  3.39013452914798 18.1818181818182  L 13.1838565022422 18.1818181818182  C 13.7017937219731 18.1818181818182  14.1451793721973 17.9592803030303  14.5140134529148 17.5142045454545  C 14.8828475336323 17.0691287878788  15.067264573991 16.5340909090909  15.067264573991 15.9090909090909  L 15.067264573991 14.1193181818182  C 15.067264573991 13.9962121212121  15.1025784753363 13.8920454545455  15.1732062780269 13.8068181818182  L 15.9265695067265 12.8977272727273  C 16.0442825112108 12.7556818181818  16.1816143497758 12.7225378787879  16.3385650224215 12.7982954545455  Z M 7.53363228699552 12.2727272727273  L 15.4439461883408 2.72727272727273  L 18.8340807174888 6.81818181818182  L 10.9237668161435 16.3636363636364  L 7.53363228699552 16.3636363636364  L 7.53363228699552 12.2727272727273  Z M 21 3.63636363636364  C 21 4.01515151515151  20.890134529148 4.33712121212121  20.6704035874439 4.60227272727273  L 19.5874439461883 5.90909090909091  L 16.1973094170404 1.81818181818182  L 17.280269058296 0.511363636363635  C 17.5 0.246212121212119  17.7668161434978 0.113636363636365  18.0807174887892 0.113636363636365  C 18.3946188340807 0.113636363636365  18.6614349775785 0.246212121212119  18.8811659192825 0.511363636363635  L 20.6704035874439 2.67045454545455  C 20.890134529148 2.93560606060606  21 3.25757575757576  21 3.63636363636364  Z " fill-rule="nonzero" fill="#000000" stroke="none" transform="matrix(1 0 0 1 278 129 )" />
  </g>
</svg>