<?xml version="1.0" encoding="utf-8"?>
<svg version="1.1" xmlns:xlink="http://www.w3.org/1999/xlink" width="895px" height="164px" xmlns="http://www.w3.org/2000/svg">
  <g transform="matrix(1 0 0 1 -40 -510 )">
    <path d="M 41 520  A 9 9 0 0 1 50 511 L 925 511  A 9 9 0 0 1 934 520 L 934 664  A 9 9 0 0 1 925 673 L 50 673  A 9 9 0 0 1 41 664 L 41 520  Z " fill-rule="nonzero" fill="#ffffff" stroke="none" fill-opacity="0.698039215686274" />
    <path d="M 40.5 520  A 9.5 9.5 0 0 1 50 510.5 L 925 510.5  A 9.5 9.5 0 0 1 934.5 520 L 934.5 664  A 9.5 9.5 0 0 1 925 673.5 L 50 673.5  A 9.5 9.5 0 0 1 40.5 664 L 40.5 520  Z " stroke-width="1" stroke="#797979" fill="none" stroke-opacity="0.713725490196078" />
  </g>
</svg>