<?xml version="1.0" encoding="utf-8"?>
<svg version="1.1" xmlns:xlink="http://www.w3.org/1999/xlink" width="21px" height="24px" xmlns="http://www.w3.org/2000/svg">
  <g transform="matrix(1 0 0 1 -208 -103 )">
    <path d="M 10.002685546875 10.2421875  C 9.233642578125 11.4140625  8.3056640625 12  7.21875 12  C 6.1318359375 12  5.203857421875 11.4140625  4.434814453125 10.2421875  C 3.665771484375 9.0703125  3.28125 7.65625  3.28125 6  C 3.28125 4.34375  3.665771484375 2.9296875  4.434814453125 1.7578125  C 5.203857421875 0.5859375  6.1318359375 0  7.21875 0  C 8.3056640625 0  9.233642578125 0.5859375  10.002685546875 1.7578125  C 10.771728515625 2.9296875  11.15625 4.34375  11.15625 6  C 11.15625 7.65625  10.771728515625 9.0703125  10.002685546875 10.2421875  Z M 17.0625 8.5  L 17.0625 14  L 20.671875 14  C 20.7607421875 14  20.837646484375 14.0494791666667  20.902587890625 14.1484375  C 20.967529296875 14.2473958333333  21 14.3645833333333  21 14.5  L 21 17.5  C 21 17.6354166666667  20.967529296875 17.7526041666667  20.902587890625 17.8515625  C 20.837646484375 17.9505208333333  20.7607421875 18  20.671875 18  L 17.0625 18  L 17.0625 23.5  C 17.0625 23.6354166666667  17.030029296875 23.7526041666667  16.965087890625 23.8515625  C 16.900146484375 23.9505208333333  16.8232421875 24  16.734375 24  L 14.765625 24  C 14.6767578125 24  14.599853515625 23.9505208333333  14.534912109375 23.8515625  C 14.469970703125 23.7526041666667  14.4375 23.6354166666667  14.4375 23.5  L 14.4375 18  L 10.828125 18  C 10.7392578125 18  10.662353515625 17.9505208333333  10.597412109375 17.8515625  C 10.532470703125 17.7526041666667  10.5 17.6354166666667  10.5 17.5  L 10.5 14.5  C 10.5 14.3645833333333  10.532470703125 14.2473958333333  10.597412109375 14.1484375  C 10.662353515625 14.0494791666667  10.7392578125 14  10.828125 14  L 14.4375 14  L 14.4375 8.5  C 14.4375 8.36458333333333  14.469970703125 8.24739583333333  14.534912109375 8.1484375  C 14.599853515625 8.04947916666667  14.6767578125 8  14.765625 8  L 16.734375 8  C 16.8232421875 8  16.900146484375 8.04947916666667  16.965087890625 8.1484375  C 17.030029296875 8.24739583333333  17.0625 8.36458333333333  17.0625 8.5  Z M 9.515625 14.5  L 9.515625 17.5  C 9.515625 18.0416666666667  9.6455078125 18.5104166666667  9.9052734375 18.90625  C 10.1650390625 19.3020833333333  10.47265625 19.5  10.828125 19.5  L 13.453125 19.5  L 13.453125 23.21875  C 12.98828125 23.7395833333333  12.40380859375 24  11.69970703125 24  L 2.73779296875 24  C 1.91064453125 24  1.24755859375 23.640625  0.74853515625 22.921875  C 0.24951171875 22.203125  0 21.2135416666667  0 19.953125  C 0 19.4010416666667  0.011962890625 18.8619791666667  0.035888671875 18.3359375  C 0.059814453125 17.8098958333333  0.107666015625 17.2421875  0.179443359375 16.6328125  C 0.251220703125 16.0234375  0.341796875 15.4583333333333  0.451171875 14.9375  C 0.560546875 14.4166666666667  0.70751953125 13.9088541666667  0.89208984375 13.4140625  C 1.07666015625 12.9192708333333  1.28857421875 12.4973958333333  1.52783203125 12.1484375  C 1.76708984375 11.7994791666667  2.059326171875 11.5208333333333  2.404541015625 11.3125  C 2.749755859375 11.1041666666667  3.130859375 11  3.5478515625 11  C 3.677734375 11  3.81103515625 11.0885416666667  3.94775390625 11.265625  C 4.48779296875 11.9010416666667  5.015869140625 12.3776041666667  5.531982421875 12.6953125  C 6.048095703125 13.0130208333333  6.6103515625 13.171875  7.21875 13.171875  C 7.8271484375 13.171875  8.389404296875 13.0130208333333  8.905517578125 12.6953125  C 9.421630859375 12.3776041666667  9.94970703125 11.9010416666667  10.48974609375 11.265625  C 10.62646484375 11.0885416666667  10.759765625 11  10.8896484375 11  C 11.7919921875 11  12.53369140625 11.5  13.11474609375 12.5  L 10.828125 12.5  C 10.47265625 12.5  10.1650390625 12.6979166666667  9.9052734375 13.09375  C 9.6455078125 13.4895833333333  9.515625 13.9583333333333  9.515625 14.5  Z " fill-rule="nonzero" fill="#000080" stroke="none" transform="matrix(1 0 0 1 208 103 )" />
  </g>
</svg>