<?xml version="1.0" encoding="utf-8"?>
<svg version="1.1" xmlns:xlink="http://www.w3.org/1999/xlink" width="28px" height="30px" xmlns="http://www.w3.org/2000/svg">
  <g transform="matrix(1 0 0 1 -9 -20 )">
    <path d="M 7.25852272727273 22.87109375  C 7.51041666666667 23.1184895833333  7.63636363636364 23.4114583333333  7.63636363636364 23.75  C 7.63636363636364 24.0885416666667  7.51041666666667 24.3815104166667  7.25852272727273 24.62890625  C 7.00662878787879 24.8763020833333  6.70833333333333 25  6.36363636363636 25  C 6.01893939393939 25  5.72064393939394 24.8763020833333  5.46875 24.62890625  C 5.21685606060606 24.3815104166667  5.09090909090909 24.0885416666667  5.09090909090909 23.75  C 5.09090909090909 23.4114583333333  5.21685606060606 23.1184895833333  5.46875 22.87109375  C 5.72064393939394 22.6236979166667  6.01893939393939 22.5  6.36363636363636 22.5  C 6.70833333333333 22.5  7.00662878787879 22.6236979166667  7.25852272727273 22.87109375  Z M 27.890625 22.3828125  C 27.9635416666667 23.203125  28 24.0559895833333  28 24.94140625  C 28 26.5169270833333  27.5160984848485 27.75390625  26.5482954545455 28.65234375  C 25.5804924242424 29.55078125  24.2945075757576 30  22.6903409090909 30  L 5.30965909090909 30  C 3.70549242424242 30  2.41950757575758 29.55078125  1.45170454545455 28.65234375  C 0.483901515151515 27.75390625  0 26.5169270833333  0 24.94140625  C 0 24.0559895833333  0.0364583333333333 23.203125  0.109375 22.3828125  C 0.182291666666667 21.5625  0.341382575757576 20.6640625  0.586647727272727 19.6875  C 0.831912878787879 18.7109375  1.1467803030303 17.8483072916667  1.53125 17.099609375  C 1.9157196969697 16.3509114583333  2.45265151515152 15.6803385416667  3.14204545454545 15.087890625  C 3.83143939393939 14.4954427083333  4.62689393939394 14.1015625  5.52840909090909 13.90625  C 5.23674242424242 14.5833333333333  5.09090909090909 15.3645833333333  5.09090909090909 16.25  L 5.09090909090909 20.21484375  C 4.3219696969697 20.4752604166667  3.70549242424242 20.9309895833333  3.24147727272727 21.58203125  C 2.77746212121212 22.2330729166667  2.54545454545455 22.9557291666667  2.54545454545455 23.75  C 2.54545454545455 24.7916666666667  2.91666666666667 25.6770833333333  3.65909090909091 26.40625  C 4.40151515151515 27.1354166666667  5.3030303030303 27.5  6.36363636363636 27.5  C 7.42424242424243 27.5  8.32575757575758 27.1354166666667  9.06818181818182 26.40625  C 9.81060606060606 25.6770833333333  10.1818181818182 24.7916666666667  10.1818181818182 23.75  C 10.1818181818182 22.9557291666667  9.94649621212121 22.2330729166667  9.47585227272727 21.58203125  C 9.00520833333333 20.9309895833333  8.39204545454546 20.4752604166667  7.63636363636364 20.21484375  L 7.63636363636364 16.25  C 7.63636363636364 15.4427083333333  7.80208333333333 14.8372395833333  8.13352272727273 14.43359375  C 9.88352272727273 15.7877604166667  11.8390151515152 16.46484375  14 16.46484375  C 16.1609848484849 16.46484375  18.1164772727273 15.7877604166667  19.8664772727273 14.43359375  C 20.1979166666667 14.8372395833333  20.3636363636364 15.4427083333333  20.3636363636364 16.25  L 20.3636363636364 17.5  C 18.9583333333333 17.5  17.7585227272727 17.98828125  16.7642045454545 18.96484375  C 15.7698863636364 19.94140625  15.2727272727273 21.1197916666667  15.2727272727273 22.5  L 15.2727272727273 24.23828125  C 14.8484848484849 24.6158854166667  14.6363636363636 25.078125  14.6363636363636 25.625  C 14.6363636363636 26.1458333333333  14.8219696969697 26.5885416666667  15.1931818181818 26.953125  C 15.5643939393939 27.3177083333333  16.0151515151515 27.5  16.5454545454545 27.5  C 17.0757575757576 27.5  17.5265151515152 27.3177083333333  17.8977272727273 26.953125  C 18.2689393939394 26.5885416666667  18.4545454545455 26.1458333333333  18.4545454545455 25.625  C 18.4545454545455 25.078125  18.2424242424242 24.6158854166667  17.8181818181818 24.23828125  L 17.8181818181818 22.5  C 17.8181818181818 21.8229166666667  18.0700757575758 21.2369791666667  18.5738636363636 20.7421875  C 19.0776515151515 20.2473958333333  19.6742424242424 20  20.3636363636364 20  C 21.0530303030303 20  21.6496212121212 20.2473958333333  22.1534090909091 20.7421875  C 22.657196969697 21.2369791666667  22.9090909090909 21.8229166666667  22.9090909090909 22.5  L 22.9090909090909 24.23828125  C 22.4848484848485 24.6158854166667  22.2727272727273 25.078125  22.2727272727273 25.625  C 22.2727272727273 26.1458333333333  22.4583333333333 26.5885416666667  22.8295454545455 26.953125  C 23.2007575757576 27.3177083333333  23.6515151515152 27.5  24.1818181818182 27.5  C 24.7121212121212 27.5  25.1628787878788 27.3177083333333  25.5340909090909 26.953125  C 25.905303030303 26.5885416666667  26.0909090909091 26.1458333333333  26.0909090909091 25.625  C 26.0909090909091 25.078125  25.8787878787879 24.6158854166667  25.4545454545455 24.23828125  L 25.4545454545455 22.5  C 25.4545454545455 21.6145833333333  25.2258522727273 20.7845052083333  24.7684659090909 20.009765625  C 24.3110795454545 19.2350260416667  23.6912878787879 18.6263020833333  22.9090909090909 18.18359375  C 22.9090909090909 18.0533854166667  22.9124053030303 17.7766927083333  22.9190340909091 17.353515625  C 22.9256628787879 16.9303385416667  22.9256628787879 16.6178385416667  22.9190340909091 16.416015625  C 22.9124053030303 16.2141927083333  22.8958333333333 15.9440104166667  22.8693181818182 15.60546875  C 22.842803030303 15.2669270833333  22.7964015151515 14.9609375  22.7301136363636 14.6875  C 22.6638257575758 14.4140625  22.5776515151515 14.1536458333333  22.4715909090909 13.90625  C 23.3731060606061 14.1015625  24.1685606060606 14.4954427083333  24.8579545454545 15.087890625  C 25.5473484848485 15.6803385416667  26.0842803030303 16.3509114583333  26.46875 17.099609375  C 26.8532196969697 17.8483072916667  27.1680871212121 18.7109375  27.4133522727273 19.6875  C 27.6586174242424 20.6640625  27.8177083333333 21.5625  27.890625 22.3828125  Z M 19.3991477272727 2.197265625  C 20.890625 3.662109375  21.6363636363636 5.4296875  21.6363636363636 7.5  C 21.6363636363636 9.5703125  20.890625 11.337890625  19.3991477272727 12.802734375  C 17.9076704545455 14.267578125  16.1079545454545 15  14 15  C 11.8920454545455 15  10.0923295454545 14.267578125  8.60085227272727 12.802734375  C 7.109375 11.337890625  6.36363636363636 9.5703125  6.36363636363636 7.5  C 6.36363636363636 5.4296875  7.109375 3.662109375  8.60085227272727 2.197265625  C 10.0923295454545 0.732421875  11.8920454545455 0  14 0  C 16.1079545454545 0  17.9076704545455 0.732421875  19.3991477272727 2.197265625  Z " fill-rule="nonzero" fill="#ffffff" stroke="none" transform="matrix(1 0 0 1 9 20 )" />
  </g>
</svg>